# xmcd
#
# Track frame offsets:
#	150
#	13466
#	32734
#	52959
#	72641
#	81712
#	94515
#	110083
#	122193
#	140621
#	163386
#	185599
#	199599
#	214424
#	235972
#	249267
#	260479
#	273380
#	281168
#	294947
#	305967
#
# Disc length: 4357 seconds
#
# Revision: 1
# Processed by: cddbd v1.5.2PL0 Copyright (c) Steve Scherf et al.
# Submitted via: audiograbber 1.83.01
#
DISCID=58110315
DTITLE=Various Artist - Capital Gold Blues Legends - CD1
DYEAR=1900
DGENRE=
TTITLE0=Fleetwood Mac - Black Magic Woman
TTITLE1=Gary Moore - Still Got The Blues
TTITLE2=Animals (The) - House Of The Rising Sun
TTITLE3=John Lee Hooker - Boom Boom
TTITLE4=John Mayall And The Bluesbreakers - Crawling Up A Hill
TTITLE5=Stevie Ray Vaughan - Pride And Joy
TTITLE6=Robert Cray Band - Smoking Gun
TTITLE7=Taj Mahal - Six Days On The Road
TTITLE8=Allman Brothers Band - Statesboro Blues
TTITLE9=Rory Gallagher - Messin' With The Kid (Live)
TTITLE10=George Thorogood And the Destroyers - Bad To The Bone
TTITLE11=Juicy Lucy - Who Do You Love
TTITLE12=Dr Feelgood - Route 66 (Live)
TTITLE13=Free - Hunter (The) (Live)
TTITLE14=Gary Moore And BB King - Since I Met You Baby
TTITLE15=Canned Heat - Lets Work Together
TTITLE16=Johnny Winter - Rollin' And Tumblin'
TTITLE17=Jeff Beck - You Shook Me
TTITLE18=Sonny Terry And Brownie McGhee - Key To The Highway
TTITLE19=Chicken Shack - I'd Rather Go Blind
TTITLE20=Bonnie Raitt - Love Me Like A Man (Live)
EXTD=
EXTT0=
EXTT1=
EXTT2=
EXTT3=
EXTT4=
EXTT5=
EXTT6=
EXTT7=
EXTT8=
EXTT9=
EXTT10=
EXTT11=
EXTT12=
EXTT13=
EXTT14=
EXTT15=
EXTT16=
EXTT17=
EXTT18=
EXTT19=
EXTT20=
PLAYORDER=
